<?xml version="1.0" encoding="UTF-8"?>
<svg id="Layer_1" data-name="Layer 1" xmlns="http://www.w3.org/2000/svg" xmlns:xlink="http://www.w3.org/1999/xlink" viewBox="0 0 595.28 618.63">
  <defs>
    <style>
      .cls-1 {
        fill: url(#linear-gradient-2);
      }

      .cls-2 {
        fill: #fff;
      }

      .cls-3 {
        fill: url(#linear-gradient-17);
      }

      .cls-4 {
        fill: url(#linear-gradient-15);
      }

      .cls-5 {
        fill: url(#linear-gradient-18);
      }

      .cls-6 {
        fill: url(#linear-gradient-14);
      }

      .cls-7 {
        fill: url(#linear-gradient-6);
      }

      .cls-8 {
        fill: url(#linear-gradient-11);
      }

      .cls-9 {
        fill: url(#linear-gradient-10);
      }

      .cls-10 {
        fill: url(#linear-gradient-16);
      }

      .cls-11 {
        fill: url(#linear-gradient-5);
      }

      .cls-12 {
        fill: url(#linear-gradient-7);
      }

      .cls-13 {
        fill: url(#linear-gradient-9);
      }

      .cls-14 {
        fill: url(#linear-gradient-3);
      }

      .cls-15 {
        fill: url(#linear-gradient);
      }

      .cls-16 {
        fill: url(#linear-gradient-19);
      }

      .cls-17 {
        fill: url(#linear-gradient-4);
      }

      .cls-18 {
        fill: url(#linear-gradient-8);
      }

      .cls-19 {
        fill: url(#linear-gradient-12);
      }

      .cls-20 {
        fill: url(#linear-gradient-13);
      }
    </style>
    <linearGradient id="linear-gradient" x1="154.9" y1="277.44" x2="163.36" y2="277.44" gradientUnits="userSpaceOnUse">
      <stop offset="0" stop-color="#21409a"/>
      <stop offset=".1" stop-color="#293c90"/>
      <stop offset=".26" stop-color="#3e3176"/>
      <stop offset=".46" stop-color="#62214c"/>
      <stop offset=".7" stop-color="#920a12"/>
      <stop offset=".73" stop-color="#98080c"/>
    </linearGradient>
    <linearGradient id="linear-gradient-2" x1="-53.87" y1="446.58" x2="-8.46" y2="446.58" gradientTransform="translate(108.54 -61.06) scale(.88 .82)" gradientUnits="userSpaceOnUse">
      <stop offset=".12" stop-color="#243d7e"/>
      <stop offset=".21" stop-color="#2d3975"/>
      <stop offset=".36" stop-color="#472e5d"/>
      <stop offset=".55" stop-color="#711e37"/>
      <stop offset=".72" stop-color="#9c0d11"/>
    </linearGradient>
    <linearGradient id="linear-gradient-3" x1="-58.38" y1="405.33" x2="-6.36" y2="405.33" xlink:href="#linear-gradient-2"/>
    <linearGradient id="linear-gradient-4" x1="88.8" y1="282.7" x2="128.68" y2="282.7" gradientTransform="translate(.23 -.07) rotate(.04)" gradientUnits="userSpaceOnUse">
      <stop offset=".12" stop-color="#243d7e"/>
      <stop offset=".21" stop-color="#2d3975"/>
      <stop offset=".36" stop-color="#472e5d"/>
      <stop offset=".55" stop-color="#711e37"/>
      <stop offset=".72" stop-color="#9c0d11"/>
    </linearGradient>
    <linearGradient id="linear-gradient-5" x1="-53.86" y1="373.02" x2="18.29" y2="373.02" xlink:href="#linear-gradient-2"/>
    <linearGradient id="linear-gradient-6" x1="-81.43" y1="369.26" x2="45.86" y2="369.26" xlink:href="#linear-gradient-2"/>
    <linearGradient id="linear-gradient-7" x1="165.4" y1="277.62" x2="216" y2="277.62" gradientUnits="userSpaceOnUse">
      <stop offset="0" stop-color="#243d7e"/>
      <stop offset=".11" stop-color="#2d3975"/>
      <stop offset=".29" stop-color="#472e5d"/>
      <stop offset=".52" stop-color="#711e37"/>
      <stop offset=".73" stop-color="#9c0d11"/>
    </linearGradient>
    <linearGradient id="linear-gradient-8" x1="218.6" y1="277.62" x2="269.44" y2="277.62" gradientUnits="userSpaceOnUse">
      <stop offset=".12" stop-color="#243d7e"/>
      <stop offset=".21" stop-color="#2d3975"/>
      <stop offset=".36" stop-color="#472e5d"/>
      <stop offset=".56" stop-color="#711e37"/>
      <stop offset=".73" stop-color="#9c0d11"/>
    </linearGradient>
    <linearGradient id="linear-gradient-9" x1="271.03" y1="277.62" x2="327.85" y2="277.62" gradientUnits="userSpaceOnUse">
      <stop offset=".12" stop-color="#243d7e"/>
      <stop offset=".22" stop-color="#2d3975"/>
      <stop offset=".4" stop-color="#472e5d"/>
      <stop offset=".63" stop-color="#711e37"/>
      <stop offset=".83" stop-color="#9c0d11"/>
    </linearGradient>
    <linearGradient id="linear-gradient-10" x1="330.72" y1="279.74" x2="381.33" y2="279.74" xlink:href="#linear-gradient-9"/>
    <linearGradient id="linear-gradient-11" x1="383.68" y1="278.8" x2="432.34" y2="278.8" xlink:href="#linear-gradient-9"/>
    <linearGradient id="linear-gradient-12" x1="435.11" y1="278.8" x2="485.71" y2="278.8" xlink:href="#linear-gradient-9"/>
    <linearGradient id="linear-gradient-13" x1="488.41" y1="278.8" x2="540.98" y2="278.8" xlink:href="#linear-gradient-9"/>
    <linearGradient id="linear-gradient-14" x1="435.11" y1="324.35" x2="451.62" y2="324.35" xlink:href="#linear-gradient-9"/>
    <linearGradient id="linear-gradient-15" x1="452.62" y1="324.17" x2="469.78" y2="324.17" xlink:href="#linear-gradient-9"/>
    <linearGradient id="linear-gradient-16" x1="470.78" y1="324.17" x2="487.29" y2="324.17" xlink:href="#linear-gradient-9"/>
    <linearGradient id="linear-gradient-17" x1="493.64" y1="324.17" x2="510.15" y2="324.17" xlink:href="#linear-gradient-9"/>
    <linearGradient id="linear-gradient-18" x1="510.75" y1="324.35" x2="527.27" y2="324.35" xlink:href="#linear-gradient-9"/>
    <linearGradient id="linear-gradient-19" x1="528.2" y1="324.35" x2="544.71" y2="324.35" xlink:href="#linear-gradient-9"/>
  </defs>
  <rect class="cls-2" width="595.28" height="618.63"/>
  <path class="cls-15" d="m163.21,253.66c.1,0,.15.06.15.17v47.22c0,.11-.05.17-.15.17h-8.16c-.1,0-.15-.05-.15-.17v-47.22c.02-.11.07-.17.15-.17h8.16Z"/>
  <g>
    <rect class="cls-1" x="60.95" y="301.22" width="40.12" height="8.1"/>
    <path class="cls-14" d="m92.83,286.76h-20.76c-8.33,0-15.1-6.87-15.1-15.32s6.78-15.33,15.1-15.33h30.86s0,8.1,0,8.1h-30.86c-3.93,0-7.12,3.25-7.12,7.23s3.2,7.23,7.12,7.23h20.76s0,8.1,0,8.1Z"/>
    <path class="cls-17" d="m113.59,309.32h-12.52c-6.75,0-12.23-5.57-12.23-12.41v-28.38c0-6.85,5.49-12.42,12.24-12.42h23.63s0,8.1,0,8.1h-23.63c-2.35,0-4.25,1.94-4.25,4.32v10.14s16.77,0,16.77,0c8.33,0,15.1,6.87,15.1,15.33,0,8.45-6.78,15.33-15.1,15.33Zm-16.77-22.56v10.14c0,2.38,1.91,4.32,4.25,4.32h12.52c3.93,0,7.12-3.24,7.12-7.23,0-3.99-3.2-7.23-7.12-7.23h-16.77Z"/>
    <rect class="cls-11" x="60.95" y="240.89" width="63.75" height="8.1"/>
    <path class="cls-7" d="m133.36,225.9h-8.65s-3.07,0-3.07,0h-57.61s-3.07,0-3.07,0h-8.65c-8.66,0-15.71,7.15-15.71,15.95,0,8.79,7.05,15.94,15.71,15.94h4.34s0-8.1,0-8.1h-4.34c-4.26,0-7.73-3.52-7.73-7.85s3.47-7.85,7.73-7.85h8.65s3.07,0,3.07,0h57.61s3.07,0,3.07,0h8.65c4.26,0,7.73,3.52,7.73,7.85s-3.47,7.85-7.73,7.85h-4.34s0,8.1,0,8.1h4.34c8.66,0,15.71-7.15,15.71-15.95,0-8.79-7.05-15.94-15.71-15.94Z"/>
  </g>
  <path class="cls-12" d="m215.85,253.84c.1.02.15.08.15.17v9.02c0,.11-.05.17-.15.17h-20.87v38.04c0,.11-.05.17-.15.17h-8.25c-.1,0-.15-.05-.15-.17v-38.04h-20.87c-.1,0-.15-.06-.15-.17v-9.02c.02-.11.07-.17.15-.17h50.3Z"/>
  <path class="cls-18" d="m269.29,253.85c.1.02.15.08.15.17v9.02c0,.11-.05.17-.15.17h-39.1c-1.46,0-2.47.96-3.03,2.88v.93c0,1.79,1.06,2.92,3.19,3.38h25.27c4.35,0,8.08,2.14,11.19,6.43,1.76,2.81,2.64,5.74,2.64,8.79v.56c0,5.11-2.17,9.38-6.52,12.83-2.45,1.59-4.81,2.39-7.1,2.39h-36.92c-.1,0-.15-.05-.15-.17v-9.02c.02-.11.07-.17.15-.17h36.71c2.12,0,3.78-1.35,4.98-4.05.2-.75.3-1.44.3-2.06v-.1c0-2.81-1.39-4.79-4.16-5.94-.57-.11-.97-.17-1.21-.17h-24.3c-3.66,0-6.58-1.14-8.77-3.42-2.57-2.76-3.85-5.74-3.85-8.92v-1.06c0-4.27,1.92-7.86,5.76-10.78,1.96-1.15,3.85-1.72,5.67-1.72h39.26Z"/>
  <path class="cls-13" d="m306.83,253.85c4.55,0,8.96,1.82,13.23,5.47,2.43,2.43,3.89,4.28,4.4,5.54,2.26,3.94,3.4,7.82,3.4,11.64v2.25c0,5.15-1.94,10.23-5.82,15.22-4.67,4.95-9.74,7.43-15.2,7.43h-14.93c-4.57,0-9.08-1.96-13.53-5.87-2.24-2.43-3.78-4.5-4.61-6.2-1.82-3.85-2.73-7.52-2.73-11.01v-1.39c0-5.99,2.21-11.47,6.64-16.45,4.47-4.42,9.29-6.63,14.47-6.63h14.68Zm-.24,38.2c4,0,7.46-2.03,10.38-6.1,1.62-2.63,2.43-5.39,2.43-8.29,0-5.44-2.38-9.74-7.13-12.9-1.98-1.04-3.92-1.56-5.82-1.56h-14.08c-4.25,0-7.85,2.23-10.8,6.7-1.31,2.45-1.97,4.87-1.97,7.26v.93c0,4.24,1.74,7.94,5.22,11.08,2.39,1.92,4.93,2.88,7.64,2.88h14.14Z"/>
  <path class="cls-9" d="m339.28,280.2c0,4.24,1.74,7.94,5.22,11.08,2.41,1.92,4.9,2.88,7.49,2.88h29.18c.1.02.15.08.15.17v9.02c0,.11-.05.17-.15.17h-29.58c-4.57,0-9.08-1.96-13.53-5.87-2.24-2.43-3.78-4.5-4.61-6.2-1.82-3.85-2.73-7.52-2.73-11.01v-24.31c.02-.11.07-.17.15-.17h8.4v24.24Z"/>
  <path class="cls-8" d="m432.19,255.03c.1.02.15.08.15.17v9.02c0,.11-.05.17-.15.17h-48.36c-.1,0-.15-.06-.15-.17v-9.02c.02-.11.07-.17.15-.17h48.36Zm0,16.55c.1.02.15.08.15.17v9.02c0,.11-.05.17-.15.17h-48.36c-.1,0-.15-.05-.15-.17v-9.02c.02-.11.07-.17.15-.17h48.36Zm0,21.65c.1.02.15.08.15.17v9.02c0,.11-.05.17-.15.17h-48.36c-.1,0-.15-.05-.15-.17v-9.02c.02-.11.07-.17.15-.17h48.36Z"/>
  <path class="cls-19" d="m474.52,255.03c3.09,0,5.98,1.57,8.65,4.71,1.7,2.61,2.55,5.04,2.55,7.3v1.72c0,3.43-1.54,6.6-4.61,9.52-2.14,1.77-4.74,2.65-7.8,2.65h-11.71v.07c13.67,12.29,21.56,19.47,23.66,21.52v.07h-13.14c-15.67-14.15-23.67-21.42-24-21.82v-9.02c.02-.11.07-.17.15-.17h25.12c1.7,0,2.86-.66,3.49-1.99.24-.62.36-1.17.36-1.66,0-1.66-.83-2.82-2.49-3.48-.2-.04-.41-.07-.61-.07h-30.49v38.04c0,.11-.05.17-.15.17h-8.25c-.1,0-.15-.05-.15-.17v-47.22c.02-.11.07-.17.15-.17h39.25Z"/>
  <path class="cls-20" d="m519.45,255.03c.06.02,3.74,8.07,11.04,24.14,1.25,2.87,4.75,10.66,10.5,23.35l-.15.07h-9.22c-.14,0-1.38-2.67-3.7-8.02-7.99-17.49-12.38-27.19-13.17-29.12h-.09c-9.77,21.78-15.36,34.16-16.78,37.14h-9.31l-.15-.07,21.48-47.49h9.56Z"/>
  <path class="cls-6" d="m447.97,316.59c1.01,0,1.95.51,2.82,1.54.55.85.83,1.64.83,2.38v.56c0,1.12-.5,2.15-1.5,3.11-.7.58-1.55.87-2.54.87h-8.17s-.05-.02-.05-.05v-2.94s.02-.05.05-.05h8.2c.55,0,.93-.22,1.14-.65.08-.2.12-.38.12-.54,0-.54-.27-.92-.81-1.14-.07-.01-.13-.02-.2-.02h-9.95v12.41s-.02.05-.05.05h-2.69s-.05-.02-.05-.05v-15.41s.02-.05.05-.05h12.81Z"/>
  <path class="cls-4" d="m455.68,316.41c.05,0,.43.82,1.14,2.46.41.87,1.86,4.09,4.37,9.66h.03c3.17-7.08,5-11.12,5.49-12.12h3.03l.05.02-7.01,15.5h-3.11s-1.23-2.64-3.6-7.88c-.5-1.12-1.64-3.66-3.44-7.62l.05-.02h3.01Z"/>
  <path class="cls-10" d="m487.24,316.41s.05.03.05.05v2.94s-.02.05-.05.05h-6.81v12.41s-.02.05-.05.05h-2.69s-.05-.02-.05-.05v-12.41h-6.81s-.05-.02-.05-.05v-2.94s.02-.05.05-.05h16.41Z"/>
  <path class="cls-3" d="m496.43,324.32c0,1.38.57,2.59,1.7,3.61.79.63,1.6.94,2.45.94h9.52s.05.03.05.05v2.94s-.02.05-.05.05h-9.65c-1.49,0-2.96-.64-4.42-1.92-.73-.79-1.23-1.47-1.51-2.02-.59-1.25-.89-2.45-.89-3.59v-7.93s.02-.05.05-.05h2.74v7.91Z"/>
  <path class="cls-5" d="m527.22,316.59s.05.03.05.05v2.94s-.02.05-.05.05h-6.81v12.41s-.02.05-.05.05h-2.69s-.05-.02-.05-.05v-12.41h-6.81s-.05-.02-.05-.05v-2.94s.02-.05.05-.05h16.41Z"/>
  <path class="cls-16" d="m537.85,316.59c1.8,0,3.47.83,5.01,2.48,1.23,1.61,1.85,3.26,1.85,4.97v.7c0,1.55-.57,3.12-1.7,4.7-.65.74-1.23,1.27-1.72,1.59-1.19.72-2.34,1.08-3.44,1.08h-9.6s-.05-.02-.05-.05v-10.01s.02-.05.05-.05h2.69s.05.03.05.05v7.01h6.79c1.35,0,2.5-.7,3.46-2.1.48-.84.71-1.71.71-2.62,0-1.64-.69-2.99-2.07-4.03-.72-.45-1.42-.67-2.1-.67h-9.53s-.05-.02-.05-.05v-2.94s.02-.05.05-.05h9.6Z"/>
</svg>